<?xml version="1.0" ?><!DOCTYPE svg  PUBLIC '-//W3C//DTD SVG 1.1//EN'  'http://www.w3.org/Graphics/SVG/1.1/DTD/svg11.dtd'><svg enable-background="new 0 0 51.9996 50.9375" id="money-pig-heart" version="1.1" viewBox="0 0 51.9996 50.9375" xml:space="preserve" xmlns="http://www.w3.org/2000/svg" xmlns:xlink="http://www.w3.org/1999/xlink"><g><path d="M46.7715,28.462c-0.7256-9.2959-10.0801-17.7569-21.332-17.7569c-2.1143,0-4.1543,0.2608-6.0801,0.7422   c-4.9873-1.6958-11.2901-1.1401-11.7119-0.2471c-0.2559,0.544,1.0654,2.7862,2.5039,4.9668   c-2.3174,2.0186-4.0703,4.4932-5.0528,7.2476h-3.333c-0.1982,0-0.3926,0.0767-0.542,0.2261C1.0742,23.7876,1,23.983,1,24.1802   v6.5288c0,0.2744,0.0732,0.5508,0.2256,0.7998c0.1523,0.2491,0.3652,0.4366,0.6094,0.5596l3.2959,1.6856   c1.3837,3.8066,4.2392,7.0703,8.0127,9.3271v6.0918c0,0.1963,0.0742,0.3916,0.2236,0.54c0.1504,0.1504,0.3447,0.2246,0.5391,0.2246   h5.789c0.2842,0,0.5713-0.0791,0.8262-0.2441c0.2558-0.1631,0.4463-0.3926,0.5635-0.6494l1.3017-2.8574   c0.9961,0.124,2.0156,0.1855,3.0528,0.1855c1.6367,0,3.2314-0.1553,4.7617-0.4482v3.249c0,0.1943,0.0732,0.3916,0.2236,0.54   c0.1475,0.1475,0.3428,0.2246,0.5381,0.2246h5.8291c0.2744,0,0.5527-0.0742,0.8027-0.2265c0.25-0.1563,0.4405-0.3711,0.5625-0.6172   c0,0,7.2657-14.5137,7.3408-14.6943c0.4024-0.9717,0.7081-1.9854,0.9053-3.0245c0.1485-0.7841,0.2344-1.5849,0.2578-2.4003" fill="#FBD0C4"/><g><path d="M36.792,50.9375h-5.8291c-0.4629,0-0.916-0.1884-1.2451-0.5175    c-0.3311-0.3272-0.5166-0.7715-0.5166-1.2471v-2.0684c-2.0469,0.293-4.1797,0.3443-6.2041,0.1543l-1.002,2.1997    c-0.2031,0.4444-0.5263,0.8169-0.9365,1.0782c-0.4023,0.2607-0.876,0.4008-1.3633,0.4008h-5.789    c-0.4698,0-0.9122-0.1835-1.2461-0.5175c-0.3321-0.3301-0.5166-0.774-0.5166-1.2471v-5.5332    C8.5059,41.335,5.7549,38.107,4.332,34.4683l-2.9521-1.5098c-0.4141-0.2085-0.7637-0.5302-1.0078-0.9277    C0.1289,31.6324,0,31.1753,0,30.709v-6.5288c0-0.476,0.1855-0.9209,0.5225-1.2524c0.3291-0.3291,0.7724-0.5132,1.2431-0.5132    h2.6446c0.956-2.356,2.4746-4.5493,4.4384-6.4146c-2.4277-3.7778-2.3955-4.6108-2.1064-5.2255    c0.8818-1.8667,8.1689-1.794,12.6582-0.3662c1.9609-0.4668,3.9912-0.7032,6.0391-0.7032c11.0839,0,21.124,8.21,22.2695,18.0645    c1.4404-0.3877,2.2441-1.1411,2.289-1.7818c0.0381-0.5473-0.5644-1.0434-1.5732-1.2954l0.4844-1.9404    c2.4053,0.6006,3.1699,2.1377,3.084,3.3755c-0.1055,1.5078-1.503,3.1645-4.378,3.7163c-0.0459,0.5806-0.123,1.1553-0.2295,1.7173    c-0.208,1.0947-0.5322,2.1782-0.9638,3.2212c-0.0742,0.1772-4.0489,8.124-7.3701,14.7593    c-0.2061,0.4145-0.5274,0.7675-0.9268,1.0175C37.7148,50.8086,37.2578,50.9375,36.792,50.9375L36.792,50.9375z M31.2012,48.9375    h5.5908c0.0986,0,0.1963-0.0278,0.2822-0.0805c0.0781-0.0484,0.1436-0.1206,0.1875-0.2075    c1.9785-3.9536,7.1494-14.2881,7.3262-14.6646c0.3662-0.8848,0.6504-1.8364,0.833-2.7964    c0.1377-0.728,0.2187-1.4829,0.2402-2.2426l0.0684-0.8785c-0.9893-8.9174-10.1572-16.3623-20.29-16.3623    c-1.9825,0-3.9473,0.2398-5.8379,0.7124l-0.2852,0.0713l-0.2793-0.0947c-4.1084-1.3965-8.8896-1.1338-10.3174-0.6934    c0.1914,0.4893,0.7344,1.5928,2.2666,3.9156l0.4815,0.7304l-0.6592,0.5742c-2.2139,1.9278-3.8623,4.2896-4.7686,6.8296    l-0.2363,0.6641H2v6.2944c0,0.0992,0.0264,0.1929,0.0791,0.2779c0.0488,0.081,0.1182,0.1445,0.2061,0.1884l3.6513,1.8672    l0.1338,0.3697c1.2803,3.5214,3.9746,6.6503,7.5869,8.8105l0.4864,0.2915v6.4233h5.5517c0.0703,0,0.1758-0.0146,0.2822-0.0834    c0.1114-0.0708,0.169-0.1612,0.1973-0.2251l1.6065-3.5254l0.7294,0.0908c2.4151,0.2993,5.0479,0.2163,7.502-0.2525l1.1885-0.2275    V48.9375L31.2012,48.9375z" fill="#43525B"/></g><circle cx="13.2212" cy="22.0894" fill="#43525B" r="1.897"/><g><path d="M24.2314,14.7393l-5.8769-5.8716c0.0039-0.0019,0.0068-0.0019,0.0078-0.0063    c-0.8906-0.8301-1.4541-2.001-1.4541-3.3174c0-2.5103,2.0342-4.544,4.5459-4.544C23.9639,1,26,3.0337,26,5.544    C26,3.0337,28.0332,1,30.5459,1c2.5088,0,4.5449,2.0337,4.5449,4.544c0,1.3164-0.5703,2.4902-1.4609,3.3218l0.0117,0.0019    l-5.873,5.8716" fill="#F48886"/><g><path d="M24.2314,15.7393c-0.2558,0-0.5117-0.0976-0.707-0.2925l-5.8769-5.8716     c-0.0284-0.0288-0.0547-0.059-0.0801-0.0903c-1.0713-1.0532-1.6592-2.4468-1.6592-3.9409c0-3.0571,2.4883-5.544,5.5459-5.544     C23.333,0,24.9961,0.9385,26,2.3716C27.0039,0.9385,28.667,0,30.5459,0c3.0576,0,5.5449,2.4869,5.5449,5.544     c0,1.4907-0.5898,2.8852-1.665,3.9434c-0.0235,0.0307-0.0498,0.0595-0.0772,0.0874l-5.873,5.8715     c-0.3906,0.3907-1.0235,0.3907-1.4141,0c-0.3906-0.3906-0.3906-1.0239,0-1.414l5.7715-5.7705     c0.0342-0.045,0.0723-0.0874,0.1143-0.127c0.7373-0.6885,1.1435-1.6084,1.1435-2.5908C34.0908,3.5899,32.501,2,30.5459,2     C28.5908,2,27,3.5899,27,5.544c0,0.5522-0.4473,1-1,1c-0.5527,0-1-0.4478-1-1C25,3.5899,23.4092,2,21.4541,2     c-1.9551,0-3.5459,1.5899-3.5459,3.544c0,0.9849,0.4033,1.9033,1.1357,2.5859c0.044,0.0406,0.0831,0.0845,0.1182,0.1309     l5.7764,5.771c0.3906,0.3906,0.3906,1.0234,0,1.4141C24.7432,15.6417,24.4873,15.7393,24.2314,15.7393L24.2314,15.7393z" fill="#43525B"/></g></g><g><path d="M30.8115,15.9268h-11.376c-0.5527,0-1-0.4477-1-1c0-0.5522,0.4473-1,1-1h11.376c0.5528,0,1,0.4478,1,1    C31.8115,15.4791,31.3643,15.9268,30.8115,15.9268L30.8115,15.9268z" fill="#43525B"/></g></g></svg>